<svg width="110" height="110" viewBox="0 0 110 110" fill="none" xmlns="http://www.w3.org/2000/svg">
<defs>
<linearGradient id="paint0_linear_2807_16806" x1="52.5" y1="120" x2="53" y2="1.99999" gradientUnits="userSpaceOnUse">
<stop offset="0.0520833" stop-color="#B1ACAC"/>
<stop offset="1" stop-color="#F2F2F2"/>
</linearGradient>
</defs>
<circle cx="55" cy="55" r="55" fill="url(#paint0_linear_2807_16806)"/>
<circle cx="54.8621" cy="54.8621" r="50.8621" fill="white"/>
<path fill-rule="evenodd" clip-rule="evenodd" d="M55 19L25 32.0909V51.7273C25 69.8909 37.8 86.8764 55 91C72.2 86.8764 85 69.8909 85 51.7273V32.0909L55 19ZM55.03 30.542C52.3451 30.542 49.8895 32.8239 50.0694 35.5026L52.5497 64.9564C52.5497 65.6142 52.811 66.2451 53.2761 66.7103C53.7413 67.1754 54.3722 67.4367 55.03 67.4367C55.6878 67.4367 56.3187 67.1754 56.7839 66.7103C57.249 66.2451 57.5103 65.6142 57.5103 64.9564L59.9906 35.5026C60.1705 32.8239 57.7149 30.542 55.03 30.542ZM59.0511 76.4278C59.0511 78.6538 57.2466 80.4583 55.0206 80.4583C52.7946 80.4583 50.9901 78.6538 50.9901 76.4278C50.9901 74.2018 52.7946 72.3972 55.0206 72.3972C57.2466 72.3972 59.0511 74.2018 59.0511 76.4278Z" fill="#EF373E"/>
</svg>
