<svg width="110" height="110" viewBox="0 0 110 110" fill="none" xmlns="http://www.w3.org/2000/svg">
    <defs>
        <linearGradient id="paint0_linear_2807_16813" x1="52.5" y1="120" x2="53" y2="1.99999"
            gradientUnits="userSpaceOnUse">
            <stop offset="0.0520833" stop-color="#B1ACAC" />
            <stop offset="1" stop-color="#F2F2F2" />
        </linearGradient>
    </defs>
    <circle cx="55" cy="55" r="55" fill="url(#paint0_linear_2807_16813)" />
    <circle cx="54.8621" cy="54.8621" r="50.8621" fill="white" />
    <path fill-rule="evenodd" clip-rule="evenodd"
        d="M55 19L25 32.0909V51.7273C25 69.8909 37.8 86.8764 55 91C72.2 86.8764 85 69.8909 85 51.7273V32.0909L55 19ZM58.6012 40.0184C58.0527 39.7518 56.7563 39.4454 55.0335 39.4663C53.2244 39.4913 51.5036 39.8916 50.1408 41.0149L50.1407 41.0149C48.8773 42.0564 48.2408 43.202 47.9148 44.0636C47.7504 44.498 47.6658 44.8593 47.6234 45.0929C47.6023 45.2091 47.592 45.2916 47.5876 45.333C47.5863 45.345 47.5855 45.3535 47.5851 45.3583C47.5049 46.77 46.3043 47.8592 44.8873 47.7974C43.4587 47.735 42.3512 46.5264 42.4135 45.0978L44.9132 45.2069C42.4135 45.0978 42.4136 45.0966 42.4136 45.0954L42.4137 45.0929L42.414 45.0877L42.4145 45.0762L42.416 45.0494C42.4172 45.0297 42.4187 45.0066 42.4206 44.9801C42.4245 44.9272 42.4303 44.8609 42.4387 44.7822C42.4556 44.6249 42.4831 44.4173 42.5284 44.1681C42.6186 43.6711 42.7804 43.0007 43.0715 42.2313C43.6565 40.6851 44.7668 38.7338 46.8471 37.0191L46.8471 37.0191C49.4546 34.8698 52.5018 34.3222 54.9648 34.2885L54.9683 34.2885C57.1449 34.2618 59.3344 34.615 60.8721 35.3647L60.8764 35.3668C62.8033 36.3105 67.5891 39.0821 67.5891 45.2107C67.5891 51.3977 63.424 54.2609 60.091 56.552L59.9723 56.6336C58.4828 57.6578 57.7273 58.5485 57.3205 59.3047C56.9231 60.0435 56.7559 60.8434 56.7559 61.8772C56.7559 63.3071 55.5967 64.4663 54.1668 64.4663C52.7368 64.4663 51.5776 63.3071 51.5776 61.8772C51.5776 60.2401 51.8521 58.5395 52.7602 56.8516C53.6588 55.181 55.0725 53.7185 57.0382 52.3668C60.5967 49.9197 62.4109 48.4645 62.4109 45.2107C62.4109 42.2992 60.2386 40.8208 58.6012 40.0184ZM57.4999 69.7926C57.4999 71.6336 56.0075 73.1259 54.1666 73.1259C52.3256 73.1259 50.8333 71.6336 50.8333 69.7926C50.8333 67.9517 52.3256 66.4593 54.1666 66.4593C56.0075 66.4593 57.4999 67.9517 57.4999 69.7926Z"
        fill="#DFE1DF" />
</svg>