<svg width="14" height="19" viewBox="0 0 14 19" fill="none" xmlns="http://www.w3.org/2000/svg">
<path fill-rule="evenodd" clip-rule="evenodd" d="M4.56668 19C4.46006 19.0001 4.35471 18.9769 4.25804 18.9322C4.16136 18.8874 4.07571 18.8222 4.0071 18.7409C3.93849 18.6597 3.88858 18.5645 3.86089 18.4621C3.83319 18.3596 3.82838 18.2523 3.84679 18.1478V18.1435L4.96481 12.0338H0.636302C0.516155 12.0338 0.398467 11.9999 0.296849 11.9361C0.195232 11.8724 0.113836 11.7812 0.0620781 11.6733C0.0103198 11.5654 -0.00968693 11.4452 0.00437231 11.3264C0.0184315 11.2077 0.0659821 11.0953 0.141524 11.0023L2.98597 7.50302L9.21896 13.7058L5.14021 18.7229C5.07171 18.8091 4.98456 18.8787 4.88526 18.9267C4.78596 18.9747 4.67706 18.9997 4.56668 19ZM13.8585 7.99896L11.1382 11.3451L4.90503 5.14214L8.8586 0.278358C8.95782 0.153015 9.09556 0.0634638 9.25077 0.0233971C9.40597 -0.0166695 9.57009 -0.00504584 9.71803 0.0564908C9.86596 0.118027 9.98958 0.22609 10.07 0.364153C10.1503 0.502216 10.1831 0.662681 10.1632 0.821008C10.1632 0.829548 10.1615 0.837883 10.1598 0.846307L10.1598 0.846317L10.158 0.856235L9.03598 6.96749H13.3637C13.4838 6.9675 13.6015 7.00136 13.7031 7.06515C13.8048 7.12894 13.8862 7.22006 13.9379 7.32796C13.9897 7.43586 14.0097 7.55614 13.9956 7.67488C13.9816 7.79363 13.934 7.90598 13.8585 7.99896ZM1.61523 3.98243C1.38222 4.2143 1.38222 4.59025 1.61523 4.82212L11.7405 14.8984C11.9735 15.1303 12.3513 15.1303 12.5843 14.8984C12.8173 14.6665 12.8173 14.2906 12.5843 14.0587L2.459 3.98243C2.226 3.75056 1.84823 3.75056 1.61523 3.98243Z" fill="#343841"/>
</svg>
