<svg width="288" height="96" viewBox="0 0 288 96" fill="none" xmlns="http://www.w3.org/2000/svg">
<path d="M190.492 73.3455C188.17 73.3455 187.372 71.2424 187.372 69.3332C187.372 67.424 187.604 65.0146 189.967 64.3816C190.714 64.1774 191.704 64.2488 191.875 63.8711H193.572C193.339 65.5148 192.067 65.7292 190.543 65.913C189.018 66.0968 188.412 67.2402 188.271 68.5164C188.441 67.9702 188.782 67.4947 189.243 67.1615C189.704 66.8282 190.259 66.6552 190.825 66.6685C191.244 66.6658 191.659 66.7511 192.044 66.9189C192.429 67.0866 192.775 67.3333 193.06 67.6432C193.346 67.9531 193.565 68.3196 193.703 68.7194C193.842 69.1193 193.897 69.5438 193.865 69.9662C193.898 70.4213 193.834 70.8784 193.676 71.306C193.518 71.7335 193.27 72.1213 192.949 72.4426C192.629 72.7639 192.243 73.011 191.819 73.1669C191.395 73.3228 190.942 73.3837 190.492 73.3455ZM190.593 67.9549C189.715 67.9549 189.139 68.69 189.139 69.9968C189.139 71.3036 189.704 72.0387 190.613 72.0387C191.522 72.0387 192.077 71.324 192.077 69.9968C192.077 68.6696 191.522 67.9549 190.593 67.9549Z" fill="#4B4E51"/>
<path d="M197.903 73.3449C197.457 73.368 197.011 73.2946 196.594 73.1297C196.178 72.9648 195.801 72.7123 195.489 72.3887C195.176 72.0652 194.936 71.6782 194.783 71.2533C194.63 70.8285 194.568 70.3756 194.602 69.9248C194.572 69.472 194.636 69.0179 194.79 68.5915C194.943 68.1651 195.183 67.7757 195.494 67.4482C195.804 67.1207 196.179 66.8621 196.594 66.6891C197.009 66.5161 197.455 66.4324 197.903 66.4433C199.852 66.4433 201.094 67.8829 201.094 70.1698V70.3434H196.47C196.47 71.4664 197.025 72.079 197.974 72.079C198.267 72.0948 198.556 72.0094 198.795 71.8369C199.034 71.6643 199.207 71.4149 199.287 71.1295H200.933C200.746 71.7882 200.345 72.3644 199.796 72.7661C199.247 73.1677 198.581 73.3715 197.903 73.3449ZM197.903 67.7399C197.714 67.7413 197.526 67.7804 197.352 67.855C197.177 67.9296 197.019 68.0382 196.885 68.1748C196.752 68.3113 196.647 68.473 196.576 68.6506C196.504 68.8283 196.468 69.0184 196.47 69.2101H199.287C199.295 69.0208 199.265 68.8319 199.199 68.6545C199.134 68.4771 199.033 68.3149 198.904 68.1777C198.775 68.0404 198.62 67.9309 198.448 67.8557C198.276 67.7805 198.091 67.7411 197.903 67.7399Z" fill="#4B4E51"/>
<path d="M204.739 73.3452C203.124 73.3452 201.71 72.6917 201.71 71.0276H203.396C203.467 71.7321 203.962 72.12 204.779 72.12C205.597 72.12 205.931 71.7321 205.931 71.242C205.931 70.7519 205.587 70.3334 204.81 70.3334H204.123V69.2103H204.588C205.335 69.2103 205.809 69.0163 205.809 68.3629C205.809 67.9647 205.486 67.6278 204.8 67.6278C204.113 67.6278 203.679 67.8422 203.578 68.5263H201.942C201.993 67.0051 203.386 66.4844 204.86 66.4844C206.557 66.4844 207.556 67.0255 207.556 68.2404C207.549 68.5768 207.431 68.9011 207.22 69.1619C207.01 69.4227 206.719 69.605 206.395 69.6799C206.588 69.6876 206.777 69.7345 206.952 69.818C207.126 69.9014 207.282 70.0196 207.41 70.1654C207.539 70.3113 207.636 70.4818 207.698 70.6668C207.759 70.8518 207.783 71.0474 207.768 71.242C207.748 72.6305 206.536 73.3452 204.739 73.3452Z" fill="#4B4E51"/>
<path d="M211.847 73.3551C211.166 73.3754 210.495 73.1898 209.919 72.8221C209.343 72.4544 208.888 71.9212 208.614 71.2908C208.339 70.6605 208.257 69.9616 208.377 69.2836C208.498 68.6057 208.815 67.9795 209.29 67.4852C209.764 66.9909 210.374 66.651 211.04 66.5089C211.707 66.3669 212.4 66.4292 213.032 66.6879C213.663 66.9466 214.204 67.3899 214.584 67.9611C214.965 68.5322 215.169 69.2053 215.169 69.8941C215.202 70.3485 215.14 70.8049 214.986 71.2331C214.832 71.6614 214.591 72.0519 214.277 72.3789C213.963 72.7059 213.584 72.9619 213.165 73.1302C212.747 73.2984 212.297 73.3751 211.847 73.3551ZM211.847 67.8011C210.898 67.8011 210.312 68.5873 210.312 69.843C210.312 71.0988 210.888 71.9462 211.877 71.9462C212.867 71.9462 213.422 71.1703 213.422 69.8226C213.422 68.475 212.806 67.8011 211.817 67.8011H211.847Z" fill="#4B4E51"/>
<path d="M220.187 73.1508V68.0461H217.704V73.1508H215.937V66.627H221.995V73.1508H220.187Z" fill="#4B4E51"/>
<path d="M227.236 73.1508C227.156 72.9495 227.115 72.7346 227.115 72.5178C226.838 72.7883 226.51 73.0006 226.152 73.1426C225.793 73.2845 225.41 73.3532 225.025 73.3447C223.601 73.3447 222.723 72.5994 222.723 71.3641C222.723 69.6591 224.257 69.4549 225.54 69.3222C226.822 69.1895 227.115 69.0772 227.115 68.5463C227.115 68.0154 226.731 67.6682 225.944 67.6682C225.156 67.6682 224.803 67.9235 224.671 68.6892H223.005C223.106 67.2394 224.136 66.4941 226.035 66.4941C227.337 66.4941 228.852 66.7902 228.852 68.6177V71.4356C228.808 72.0334 228.884 72.634 229.074 73.2018L227.236 73.1508ZM225.853 70.3227C225.237 70.4248 224.55 70.4963 224.55 71.3437C224.55 71.8848 224.914 72.2115 225.56 72.2115C225.761 72.2384 225.965 72.2206 226.159 72.1593C226.353 72.098 226.531 71.9947 226.681 71.8566C226.831 71.7186 226.949 71.5491 227.028 71.36C227.106 71.1708 227.143 70.9667 227.135 70.7617V70.0266C226.731 70.21 226.295 70.3106 225.853 70.3227Z" fill="#4B4E51"/>
<path d="M232.88 73.3145C232.437 73.3402 231.995 73.2704 231.581 73.1096C231.167 72.9488 230.792 72.7008 230.481 72.382C230.17 72.0633 229.929 71.6811 229.775 71.261C229.621 70.8408 229.557 70.3923 229.588 69.9453C229.549 69.4877 229.607 69.0268 229.758 68.5936C229.909 68.1603 230.15 67.7647 230.464 67.4332C230.779 67.1016 231.16 66.8418 231.581 66.6712C232.003 66.5005 232.456 66.4229 232.91 66.4435C233.269 66.401 233.633 66.4312 233.981 66.5323C234.328 66.6334 234.652 66.8034 234.934 67.0323C235.216 67.2613 235.45 67.5447 235.623 67.8661C235.795 68.1874 235.903 68.5402 235.939 68.904H234.202C234.177 68.5862 234.029 68.2911 233.792 68.0814C233.554 67.8717 233.245 67.7639 232.93 67.7809C231.921 67.7809 231.395 68.5671 231.395 69.9045C231.395 71.2419 231.941 71.9464 232.89 71.9464C233.064 71.9518 233.238 71.9223 233.401 71.8594C233.565 71.7965 233.714 71.7016 233.841 71.5801C233.967 71.4586 234.069 71.313 234.14 71.1515C234.211 70.9901 234.249 70.8161 234.253 70.6396H235.969C235.91 71.4084 235.551 72.122 234.972 72.6236C234.393 73.1251 233.64 73.3736 232.88 73.3145Z" fill="#4B4E51"/>
<path d="M240.988 73.1508V70.4453H238.504V73.1917H236.737V66.627H238.504V68.9956H240.988V66.627H242.755V73.1508H240.988Z" fill="#4B4E51"/>
<path d="M246.855 73.3554C246.174 73.3737 245.504 73.1863 244.929 72.8173C244.354 72.4483 243.901 71.9144 243.628 71.2838C243.355 70.6532 243.274 69.9546 243.396 69.2773C243.518 68.5999 243.836 67.9747 244.311 67.4814C244.786 66.9882 245.395 66.6493 246.062 66.5081C246.728 66.367 247.421 66.4299 248.052 66.689C248.683 66.948 249.223 67.3913 249.603 67.9623C249.983 68.5333 250.186 69.206 250.187 69.8944C250.222 70.3501 250.16 70.808 250.006 71.2378C249.853 71.6676 249.61 72.0593 249.295 72.3868C248.979 72.7143 248.599 72.9701 248.178 73.1371C247.757 73.3041 247.306 73.3785 246.855 73.3554ZM246.855 67.8014C245.905 67.8014 245.32 68.5876 245.32 69.8433C245.32 71.0991 245.895 71.9465 246.875 71.9465C247.854 71.9465 248.43 71.1706 248.43 69.8229C248.43 68.4753 247.824 67.8014 246.834 67.8014H246.855Z" fill="#4B4E51"/>
<path d="M254.245 73.3145C253.803 73.3402 253.36 73.2704 252.946 73.1096C252.533 72.9488 252.158 72.7008 251.846 72.382C251.535 72.0633 251.294 71.6811 251.14 71.261C250.986 70.8408 250.922 70.3923 250.953 69.9453C250.914 69.4886 250.972 69.0286 251.122 68.5961C251.273 68.1636 251.513 67.7685 251.826 67.4372C252.139 67.1058 252.519 66.8458 252.94 66.6744C253.36 66.5031 253.812 66.4244 254.265 66.4435C254.624 66.401 254.988 66.4312 255.336 66.5323C255.683 66.6334 256.007 66.8034 256.289 67.0323C256.571 67.2613 256.805 67.5447 256.978 67.8661C257.15 68.1874 257.258 68.5402 257.294 68.904H255.558C255.529 68.5853 255.38 68.2902 255.141 68.0807C254.901 67.8712 254.591 67.7638 254.275 67.7809C253.266 67.7809 252.741 68.5671 252.741 69.9045C252.741 71.2419 253.296 71.9464 254.245 71.9464C254.42 71.9518 254.594 71.9223 254.758 71.8596C254.922 71.7969 255.072 71.7021 255.199 71.5807C255.327 71.4594 255.43 71.3138 255.501 71.1523C255.573 70.9908 255.613 70.8166 255.618 70.6396H257.335C257.273 71.4074 256.913 72.1194 256.335 72.6204C255.756 73.1214 255.005 73.3709 254.245 73.3145Z" fill="#4B4E51"/>
<path d="M261.778 68.0052V73.11H260.011V68.0052H257.891V66.627H263.949V68.0052H261.778Z" fill="#4B4E51"/>
<path d="M269.018 73.1508V68.7403L266.725 73.1508H264.706V66.627H266.412V71.0375L268.715 66.627H270.734V73.1508H269.018Z" fill="#4B4E51"/>
<path d="M118.389 68.0052V73.11H116.632V68.0052H114.501V66.627H120.56V68.0052H118.389Z" fill="#4B4E51"/>
<path d="M124.114 73.345C123.668 73.3665 123.223 73.292 122.808 73.1265C122.393 72.9609 122.017 72.7081 121.706 72.3848C121.395 72.0614 121.155 71.6749 121.003 71.2508C120.85 70.8267 120.789 70.3747 120.822 69.9248C120.793 69.4781 120.855 69.0301 121.005 68.6086C121.154 68.1872 121.387 67.8012 121.69 67.4748C121.993 67.1483 122.359 66.8883 122.766 66.7109C123.172 66.5335 123.611 66.4424 124.053 66.4434C126.002 66.4434 127.244 67.8829 127.244 70.1698V70.3434H122.62C122.62 71.4664 123.185 72.079 124.134 72.079C124.427 72.093 124.715 72.0069 124.953 71.8346C125.192 71.6623 125.365 71.4139 125.447 71.1295H127.143C126.956 71.7882 126.556 72.3645 126.007 72.7661C125.458 73.1678 124.791 73.3716 124.114 73.345ZM124.053 67.74C123.864 67.7413 123.676 67.7804 123.502 67.855C123.327 67.9296 123.168 68.0383 123.035 68.1748C122.902 68.3113 122.797 68.473 122.726 68.6507C122.654 68.8283 122.618 69.0184 122.62 69.2101H125.447C125.366 68.4036 124.942 67.74 124.053 67.74Z" fill="#4B4E51"/>
<path d="M131.464 69.6797L133.847 73.1509H131.828L130.465 71.0376L129.112 73.1509H127.092L129.435 69.7103L127.304 66.6475H129.324L130.485 68.4035L131.626 66.6577H133.585L131.464 69.6797Z" fill="#4B4E51"/>
<path d="M138.663 73.1508V70.4453H136.169V73.1917H134.413V66.627H136.169V68.9956H138.663V66.627H140.42V73.1508H138.663Z" fill="#4B4E51"/>
<path d="M144.53 73.3554C143.849 73.3737 143.179 73.1863 142.604 72.8173C142.029 72.4483 141.577 71.9144 141.304 71.2838C141.03 70.6532 140.95 69.9546 141.071 69.2773C141.193 68.5999 141.511 67.9747 141.986 67.4814C142.461 66.9882 143.071 66.6493 143.737 66.5081C144.403 66.367 145.096 66.4299 145.727 66.689C146.358 66.948 146.898 67.3913 147.278 67.9623C147.658 68.5333 147.862 69.206 147.862 69.8944C147.897 70.3501 147.836 70.808 147.682 71.2378C147.528 71.6676 147.285 72.0593 146.97 72.3868C146.655 72.7143 146.274 72.9701 145.853 73.1371C145.432 73.3041 144.981 73.3785 144.53 73.3554ZM144.53 67.8014C143.581 67.8014 142.985 68.5876 142.985 69.8433C142.985 71.0991 143.561 71.9465 144.55 71.9465C145.54 71.9465 146.105 71.1706 146.105 69.8229C146.105 68.4753 145.489 67.8014 144.51 67.8014H144.53Z" fill="#4B4E51"/>
<path d="M153.032 73.1508V68.0461H151.336L151.255 70.3432C151.204 71.7011 151.134 73.4061 149.185 73.4061C148.844 73.4101 148.504 73.3654 148.175 73.2733V71.8032C148.342 71.8374 148.511 71.8578 148.68 71.8644C149.195 71.8644 149.458 71.4458 149.478 70.5066L149.579 66.627H154.759V73.1508H153.032Z" fill="#4B4E51"/>
<path d="M158.898 73.3554C158.218 73.3737 157.547 73.1863 156.972 72.8173C156.398 72.4483 155.945 71.9144 155.672 71.2838C155.399 70.6532 155.318 69.9546 155.439 69.2773C155.561 68.5999 155.88 67.9747 156.354 67.4814C156.829 66.9882 157.439 66.6493 158.105 66.5081C158.772 66.367 159.464 66.4299 160.095 66.689C160.726 66.948 161.266 67.3913 161.646 67.9623C162.027 68.5333 162.23 69.206 162.23 69.8944C162.265 70.3501 162.204 70.808 162.05 71.2378C161.896 71.6676 161.653 72.0593 161.338 72.3868C161.023 72.7143 160.642 72.9701 160.221 73.1371C159.801 73.3041 159.35 73.3785 158.898 73.3554ZM158.898 67.8014C157.949 67.8014 157.363 68.5876 157.363 69.8433C157.363 71.0991 157.939 71.9465 158.918 71.9465C159.898 71.9465 160.473 71.1706 160.473 69.8229C160.473 68.4753 159.867 67.8014 158.878 67.8014H158.898Z" fill="#4B4E51"/>
<path d="M164.765 68.0052V73.11H162.998V66.627H167.874V68.0052H164.765Z" fill="#4B4E51"/>
<path d="M172.973 73.1508V68.7403L170.641 73.1508H168.622V66.627H170.318V71.0375L172.66 66.627H174.68V73.1508H172.973Z" fill="#4B4E51"/>
<path d="M179.93 73.1508V68.7403L177.628 73.1508H175.609V66.627H177.305V71.0375L179.607 66.627H181.627V73.1508H179.93Z" fill="#4B4E51"/>
<path d="M131.404 22.8486C137.664 22.8486 142.773 25.5337 142.773 31.9249C142.793 33.5144 142.341 35.0735 141.475 36.4004C140.609 37.7272 139.37 38.7609 137.917 39.3676C139.852 39.8289 141.563 40.9675 142.747 42.5819C143.932 44.1963 144.513 46.1824 144.389 48.1886C144.389 55.2332 139.027 58.9392 132.272 58.9392H114.501V22.8486H131.404ZM122.175 37.4482H129.243C132.101 37.4482 135.16 36.8867 135.16 33.2419C135.16 29.5971 132.272 28.9845 129.243 28.9845H122.175V37.4482ZM122.175 52.6502H130.041C133.403 52.6502 136.665 51.9968 136.665 47.7394C136.665 43.482 133.151 42.8184 129.597 42.8184H122.175V52.6502Z" fill="#4B4E51"/>
<path d="M179.143 58.96H170.914L168.107 50.9047H154.829L151.921 58.96H143.843L157.515 22.8184H165.592L179.143 58.96ZM161.493 31.6496L156.727 45.1261H166.208L161.493 31.6496Z" fill="#4B4E51"/>
<path d="M196.641 22.8486C204.365 22.8486 209.767 26.4934 209.767 34.4568C209.767 42.4203 204.214 45.9425 197.045 45.9425H189.028V58.9392H181.253V22.8486H196.641ZM189.028 39.7249H195.995C199.498 39.7249 202.053 38.5611 202.053 34.5589C202.053 30.5568 199.448 29.3317 195.995 29.3317H188.977L189.028 39.7249Z" fill="#4B4E51"/>
<path d="M219.006 58.9392H209.182L220.288 44.3396C215.583 43.1247 212.12 39.6739 212.12 33.8953C212.12 26.1974 217.835 22.8486 224.398 22.8486H241.896V58.9392H234.132V44.7991H229.467L219.006 58.9392ZM234.101 29.0866H226.327C223.015 29.0866 219.763 29.7911 219.763 33.9464C219.763 38.4079 223.015 39.0511 226.68 39.0511H234.101V29.0866Z" fill="#4B4E51"/>
<path d="M270.724 29.6073H253.68V58.9392H245.854V22.8486H270.724V29.6073Z" fill="#4B4E51"/>
<path d="M60.1787 28.8315V40.7664L27.5852 32.17L17.2861 17.4785L60.1787 28.8315Z" fill="#A72B2A"/>
<path d="M34.1689 41.5625L60.1791 47.484V59.327L44.0641 55.672L34.1689 41.5625Z" fill="#A72B2A"/>
<path d="M60.1789 65.933V78.5213L49.6577 63.5439L60.1789 65.933Z" fill="#A72B2A"/>
<path d="M60.1787 28.8315V40.7664L92.7722 32.17L103.071 17.4785L60.1787 28.8315Z" fill="#EF373E"/>
<path d="M86.1889 41.5625L60.1787 47.484V59.327L76.2937 55.672L86.1889 41.5625Z" fill="#EF373E"/>
<path d="M60.1787 65.933V78.5213L70.6999 63.5439L60.1787 65.933Z" fill="#EF373E"/>
</svg>
