<svg width="26" height="26" viewBox="0 0 26 26" fill="none" xmlns="http://www.w3.org/2000/svg">
<path d="M25.0358 16.4125L23.8195 14.8407C22.9813 13.7574 22.9832 12.244 23.8241 11.1629L25.0494 9.5875C25.2931 9.39791 25.3608 9.03229 25.2119 8.76146L22.6119 4.26562C22.4494 3.96771 22.1108 3.87292 21.8129 3.96771L19.8306 4.23992C18.4715 4.42655 17.159 3.66751 16.6429 2.39647L15.8952 0.555208C15.841 0.230208 15.5702 0 15.2452 0H10.0452C9.72021 0 9.46292 0.230208 9.40875 0.555208L8.65258 2.40672C8.1336 3.67745 6.81838 4.43387 5.45903 4.24343L3.49104 3.96771C3.19313 3.85937 2.85458 3.96771 2.69208 4.26562L0.105625 8.76146C-0.0568745 9.04583 -0.00270802 9.39791 0.268125 9.5875L1.47912 11.1605C2.31294 12.2436 2.30919 13.7535 1.47 14.8324L0.241042 16.4125C-0.002708 16.6021 -0.0704162 16.9677 0.0785422 17.2385L2.67854 21.7344C2.84104 22.0323 3.17958 22.1271 3.4775 22.0323L5.45984 21.7601C6.81892 21.5734 8.13146 22.3325 8.64757 23.6035L9.39521 25.4448C9.46292 25.7698 9.72021 26 10.0452 26H15.2452C15.5702 26 15.841 25.7698 15.8817 25.4448L16.6383 23.5944C17.1572 22.3256 18.4701 21.5698 19.8279 21.7584L21.7994 22.0323C22.0973 22.1406 22.4358 22.0323 22.5983 21.7344L25.1983 17.2385C25.3608 16.9406 25.2931 16.6021 25.0358 16.4125ZM12.6452 17.875C9.96396 17.875 7.77021 15.6812 7.77021 13C7.77021 10.3188 9.96396 8.125 12.6452 8.125C15.3265 8.125 17.5202 10.3188 17.5202 13C17.5202 15.6812 15.3265 17.875 12.6452 17.875Z" fill="white"/>
</svg>
