<svg width="24" height="24" viewBox="0 0 24 24" fill="none" xmlns="http://www.w3.org/2000/svg">
<path fill-rule="evenodd" clip-rule="evenodd" d="M12 0C18.625 0 24 5.375 24 12C24 18.625 18.625 24 12 24C5.375 24 0 18.625 0 12C0 5.375 5.375 0 12 0ZM5 8C4.44772 8 4 8.44771 4 9C4 9.55229 4.44772 10 5 10H19C19.5523 10 20 9.55229 20 9C20 8.44771 19.5523 8 19 8H5ZM7 12C6.44772 12 6 12.4477 6 13C6 13.5523 6.44772 14 7 14H17C17.5523 14 18 13.5523 18 13C18 12.4477 17.5523 12 17 12H7ZM10 16C9.44772 16 9 16.4477 9 17C9 17.5523 9.44772 18 10 18H14C14.5523 18 15 17.5523 15 17C15 16.4477 14.5523 16 14 16H10Z" fill="#4B4E51"/>
</svg>
