<svg width="24" height="24" viewBox="0 0 24 24" fill="none" xmlns="http://www.w3.org/2000/svg">
<path d="M12 12C15.315 12 18 9.315 18 6C18 2.685 15.315 0 12 0C8.685 0 6 2.685 6 6C6 9.315 8.685 12 12 12ZM12 15C7.995 15 0 17.01 0 21V23C0 23.5523 0.447715 24 1 24H23C23.5523 24 24 23.5523 24 23V21C24 17.01 16.005 15 12 15Z" fill="url(#paint0_linear_783_8384)"/>
<defs>
<linearGradient id="paint0_linear_783_8384" x1="16.4571" y1="18.9474" x2="9.92192" y2="2.49774" gradientUnits="userSpaceOnUse">
<stop offset="0.0287639" stop-color="#343841"/>
<stop offset="1" stop-color="#4B4E51"/>
</linearGradient>
</defs>
</svg>
