<svg width="24" height="24" viewBox="0 0 24 24" fill="none" xmlns="http://www.w3.org/2000/svg">
<path fill-rule="evenodd" clip-rule="evenodd" d="M2 0C0.895432 0 0 0.895431 0 2V7.77778C0 8.88235 0.895431 9.77778 2 9.77778H7.77778C8.88235 9.77778 9.77778 8.88235 9.77778 7.77778V2C9.77778 0.895432 8.88235 0 7.77778 0H2ZM13.334 16.2217C13.334 15.1171 14.2294 14.2217 15.334 14.2217H21.1118C22.2163 14.2217 23.1118 15.1171 23.1118 16.2217V21.9995C23.1118 23.104 22.2163 23.9995 21.1118 23.9995H15.334C14.2294 23.9995 13.334 23.104 13.334 21.9995V16.2217ZM0.779297 17C0.779297 15.8954 1.67473 15 2.7793 15H6.99957C8.10414 15 8.99957 15.8954 8.99957 17V21.2203C8.99957 22.3248 8.10414 23.2203 6.99957 23.2203H2.7793C1.67473 23.2203 0.779297 22.3248 0.779297 21.2203L0.779297 17ZM14.4453 3.11133C14.4453 2.00676 15.3407 1.11133 16.4453 1.11133L19.9996 1.11133C21.1041 1.11133 21.9996 2.00676 21.9996 3.11133V6.66558C21.9996 7.77015 21.1041 8.66558 19.9996 8.66558H16.4453C15.3407 8.66558 14.4453 7.77015 14.4453 6.66558V3.11133Z" fill="url(#paint0_linear_783_8367)"/>
<defs>
<linearGradient id="paint0_linear_783_8367" x1="15.8481" y1="18.9469" x2="9.13365" y2="2.67139" gradientUnits="userSpaceOnUse">
<stop offset="0.0287639" stop-color="#343841"/>
<stop offset="1" stop-color="#4B4E51"/>
</linearGradient>
</defs>
</svg>
