<svg width="33" height="38" viewBox="0 0 33 38" fill="none" xmlns="http://www.w3.org/2000/svg">
<path fill-rule="evenodd" clip-rule="evenodd" d="M16.9833 0L0.991699 6.90909V17.2727C0.991699 26.8591 7.81477 35.8236 16.9833 38C26.1518 35.8236 32.9748 26.8591 32.9748 17.2727V6.90909L16.9833 0ZM16.9993 6.09161C15.568 6.09161 14.2591 7.29594 14.355 8.70972L15.6771 24.2548C15.6771 24.602 15.8164 24.9349 16.0644 25.1804C16.3123 25.4259 16.6486 25.5638 16.9993 25.5638C17.3499 25.5638 17.6862 25.4259 17.9341 25.1804C18.1821 24.9349 18.3214 24.602 18.3214 24.2548L19.6435 8.70972C19.7394 7.29594 18.4305 6.09161 16.9993 6.09161ZM19.1427 30.3091C19.1427 31.4839 18.1808 32.4363 16.9943 32.4363C15.8077 32.4363 14.8458 31.4839 14.8458 30.3091C14.8458 29.1343 15.8077 28.1819 16.9943 28.1819C18.1808 28.1819 19.1427 29.1343 19.1427 30.3091Z" fill="#EF373E"/>
</svg>
