<svg width="33" height="38" viewBox="0 0 60 72" fill="none" xmlns="http://www.w3.org/2000/svg">
    <path fill-rule="evenodd" clip-rule="evenodd"
        d="M30 0L0 13.0909V32.7273C0 50.8909 12.8 67.8764 30 72C47.2 67.8764 60 50.8909 60 32.7273V13.0909L30 0ZM33.6012 21.0184C33.0527 20.7518 31.7563 20.4454 30.0335 20.4663C28.2244 20.4913 26.5036 20.8916 25.1408 22.0149L25.1407 22.0149C23.8773 23.0564 23.2408 24.202 22.9148 25.0636C22.7504 25.498 22.6658 25.8593 22.6234 26.0929C22.6023 26.2091 22.592 26.2916 22.5876 26.333C22.5863 26.345 22.5855 26.3535 22.5851 26.3583C22.5049 27.77 21.3043 28.8592 19.8873 28.7974C18.4587 28.735 17.3512 27.5264 17.4135 26.0978L19.9132 26.2069C17.4135 26.0978 17.4136 26.0966 17.4136 26.0954L17.4137 26.0929L17.414 26.0877L17.4145 26.0762L17.416 26.0494C17.4172 26.0297 17.4187 26.0066 17.4206 25.9801C17.4245 25.9272 17.4303 25.8609 17.4387 25.7822C17.4556 25.6249 17.4831 25.4173 17.5284 25.1681C17.6186 24.6711 17.7804 24.0007 18.0715 23.2313C18.6565 21.6851 19.7668 19.7338 21.8471 18.0191L21.8471 18.0191C24.4546 15.8698 27.5018 15.3222 29.9648 15.2885L29.9683 15.2885C32.1449 15.2618 34.3344 15.615 35.8721 16.3647L35.8764 16.3668C37.8033 17.3105 42.5891 20.0821 42.5891 26.2107C42.5891 32.3977 38.424 35.2609 35.091 37.552L34.9723 37.6336C33.4828 38.6578 32.7273 39.5485 32.3205 40.3047C31.9231 41.0435 31.7559 41.8434 31.7559 42.8772C31.7559 44.3071 30.5967 45.4663 29.1668 45.4663C27.7368 45.4663 26.5776 44.3071 26.5776 42.8772C26.5776 41.2401 26.8521 39.5395 27.7602 37.8516C28.6588 36.181 30.0725 34.7185 32.0382 33.3668C35.5967 30.9197 37.4109 29.4645 37.4109 26.2107C37.4109 23.2992 35.2386 21.8208 33.6012 21.0184ZM32.4999 50.7926C32.4999 52.6336 31.0075 54.1259 29.1666 54.1259C27.3256 54.1259 25.8333 52.6336 25.8333 50.7926C25.8333 48.9517 27.3256 47.4593 29.1666 47.4593C31.0075 47.4593 32.4999 48.9517 32.4999 50.7926Z"
        fill="#DFE1DF" />
</svg>