<svg width="50" height="50" viewBox="0 0 50 50" fill="none" xmlns="http://www.w3.org/2000/svg">
<defs>
<linearGradient id="paint0_linear_823_12113" x1="23.8636" y1="54.5455" x2="24.0909" y2="0.909088" gradientUnits="userSpaceOnUse">
<stop offset="0.0520833" stop-color="#B1ACAC"/>
<stop offset="1" stop-color="#F2F2F2"/>
</linearGradient>
<linearGradient id="paint1_linear_823_12113" x1="44.1667" y1="46.0833" x2="10.625" y2="6.79167" gradientUnits="userSpaceOnUse">
<stop stop-color="#C7C9C8"/>
<stop offset="1" stop-color="#D7D8D6"/>
</linearGradient>
</defs>
<circle cx="25" cy="25" r="25" fill="url(#paint0_linear_823_12113)"/>
<circle cx="25" cy="25" r="23" fill="url(#paint1_linear_823_12113)"/>
<path d="M18.5747 23.47C18.4847 21.085 16.7597 20.11 14.5847 20.11C12.1847 20.11 10.6397 21.325 10.6397 23.23C10.6397 25.405 12.3947 25.78 14.6597 26.365C16.2347 26.77 17.1497 26.965 17.1497 28.075C17.1497 29.125 16.2947 29.755 14.8547 29.755C13.3397 29.755 12.0947 29.11 12.0947 27.46H10.2497C10.2497 30.04 12.2147 31.24 14.7497 31.24C16.8497 31.24 18.9947 30.31 18.9947 27.895C18.9947 25.6 16.9547 25.165 15.1397 24.7C13.0847 24.16 12.4247 24.1 12.4247 23.08C12.4247 22.15 13.1897 21.595 14.4647 21.595C15.7847 21.595 16.6697 22.135 16.7897 23.47H18.5747ZM24.9263 20.065C21.6563 20.065 19.7663 22.525 19.7663 25.66C19.7663 28.99 21.8363 31.255 24.8963 31.255C27.9413 31.255 30.0263 28.99 30.0263 25.66C30.0263 22.345 27.9413 20.065 24.9263 20.065ZM24.8963 21.64C26.8763 21.64 28.1363 23.2 28.1363 25.645C28.1363 28.09 26.8763 29.68 24.9263 29.68C22.9163 29.68 21.6563 28.12 21.6563 25.63C21.6563 23.215 22.9313 21.64 24.8963 21.64ZM39.0977 23.47C39.0077 21.085 37.2827 20.11 35.1077 20.11C32.7077 20.11 31.1627 21.325 31.1627 23.23C31.1627 25.405 32.9177 25.78 35.1827 26.365C36.7577 26.77 37.6727 26.965 37.6727 28.075C37.6727 29.125 36.8177 29.755 35.3777 29.755C33.8627 29.755 32.6177 29.11 32.6177 27.46H30.7727C30.7727 30.04 32.7377 31.24 35.2727 31.24C37.3727 31.24 39.5177 30.31 39.5177 27.895C39.5177 25.6 37.4777 25.165 35.6627 24.7C33.6077 24.16 32.9477 24.1 32.9477 23.08C32.9477 22.15 33.7127 21.595 34.9877 21.595C36.3077 21.595 37.1927 22.135 37.3127 23.47H39.0977Z" fill="#D7D8D6"/>
</svg>
