<svg width="38" height="38" viewBox="0 0 38 38" fill="none" xmlns="http://www.w3.org/2000/svg">
<path fill-rule="evenodd" clip-rule="evenodd" d="M21.1762 8.78433V0H8C6.34314 0 5 1.34315 5 3V35C5 36.6569 6.34315 38 8 38H31C32.6569 38 34 36.6569 34 35V12.6773C34 12.6473 33.9996 12.6174 33.9987 12.5875H24.9793C22.8789 12.5875 21.1762 10.8848 21.1762 8.78433ZM22.1762 8.78433V0H22.497C23.36 0 24.1811 0.371585 24.7507 1.01983L33.2536 10.6971C33.4866 10.9622 33.6689 11.264 33.7951 11.5875H24.9793C23.4312 11.5875 22.1762 10.3325 22.1762 8.78433ZM13 24.0314L17.5882 30L26 21.7932L24.4188 20L17.6917 26.5506L14.6559 22.5116L13 24.0314Z" fill="#4B4E51"/>
</svg>
