<svg width="38" height="38" viewBox="0 0 38 38" fill="none" xmlns="http://www.w3.org/2000/svg">
<path fill-rule="evenodd" clip-rule="evenodd" d="M20.5274 9.54715V0H7.38476C5.72791 0 4.38477 1.34315 4.38477 3V35C4.38477 36.6569 5.72791 38 7.38477 38H30.8041C32.461 38 33.8041 36.6569 33.8041 35V12.6895C33.8041 12.472 33.7805 12.2567 33.7346 12.0472H23.0274C21.6467 12.0472 20.5274 10.9279 20.5274 9.54715ZM21.5274 9.54715V0H22.1673C23.0228 0 23.8376 0.365217 24.4068 1.00382L33.0436 10.6933C33.1431 10.805 33.2336 10.9233 33.3146 11.0472H23.0274C22.199 11.0472 21.5274 10.3756 21.5274 9.54715ZM22.4484 20L19.0002 23.5214L15.552 20L14.2079 21.3726L17.6562 24.894L14.0002 28.6275L15.3443 30.0001L19.0002 26.2666L22.6561 30.0001L24.0002 28.6275L20.3443 24.894L23.7925 21.3726L22.4484 20Z" fill="#4B4E51"/>
</svg>
