<svg width="222" height="207" viewBox="0 0 222 207" fill="none" xmlns="http://www.w3.org/2000/svg">
<g filter="url(#filter0_d_3382_20964)">
<rect x="12.2412" y="49.0527" width="110" height="140" rx="9" transform="rotate(-19.523 12.2412 49.0527)" fill="#4B4E51"/>
<path d="M113.281 34.9458C112.543 32.8637 110.256 31.7743 108.174 32.5125L30.8494 59.9295C28.7673 60.6677 27.6779 62.9541 28.4161 65.0363L64.4442 166.647C65.1825 168.729 67.4688 169.818 69.551 169.08L146.876 141.663C148.958 140.925 150.047 138.639 149.309 136.556L113.281 34.9458Z" fill="white"/>
<rect x="45.9153" y="84.0771" width="69.7821" height="4.63235" transform="rotate(-19.523 45.9153 84.0771)" fill="#C7C9C8"/>
<rect x="38.6484" y="47.335" width="59.0741" height="3.08824" transform="rotate(-19.523 38.6484 47.335)" fill="#C7C9C8"/>
<rect x="50.5597" y="97.1758" width="69.7821" height="4.63235" transform="rotate(-19.523 50.5597 97.1758)" fill="#C7C9C8"/>
<rect x="56.752" y="114.641" width="43.8952" height="4.63235" transform="rotate(-19.523 56.752 114.641)" fill="#C7C9C8"/>
</g>
<g filter="url(#filter1_d_3382_20964)">
<path d="M112.753 69.5793C110.02 69.1864 107.485 71.0837 107.092 73.817L92.5792 174.779C92.1863 177.512 94.0836 180.047 96.8169 180.439L175.013 191.68C177.746 192.073 180.281 190.176 180.674 187.442L192.749 103.441C192.937 102.129 192.597 100.796 191.804 99.735L177.297 80.3388C176.503 79.2761 175.318 78.573 174.005 78.3842L112.753 69.5793Z" fill="white" stroke="#B1B3B2" stroke-width="2"/>
<path d="M192.009 101.144L177.212 99.0169C175.026 98.7026 173.508 96.6751 173.822 94.4885L175.952 79.674" stroke="#B1B3B2" stroke-width="2" stroke-linejoin="round"/>
<rect x="148.991" y="102.525" width="32.4758" height="3.91926" transform="rotate(8.18017 148.991 102.525)" fill="#B1B3B2"/>
<rect x="146.9" y="117.075" width="32.4758" height="3.91926" transform="rotate(8.18017 146.9 117.075)" fill="#B1B3B2"/>
<rect x="144.809" y="131.622" width="32.4758" height="3.91926" transform="rotate(8.18017 144.809 131.622)" fill="#B1B3B2"/>
<rect x="114.897" y="97.626" width="28.5393" height="33.3137" transform="rotate(8.18017 114.897 97.626)" fill="#B1B3B2"/>
<rect x="108.624" y="141.268" width="66.9199" height="3.91926" transform="rotate(8.18017 108.624 141.268)" fill="#B1B3B2"/>
<rect x="106.532" y="155.816" width="66.9199" height="3.91926" transform="rotate(8.18017 106.532 155.816)" fill="#B1B3B2"/>
</g>
<path d="M215.383 123.48L172.529 112.378C169.126 111.496 165.652 113.54 164.77 116.944L158.378 141.617C157.496 145.02 159.54 148.494 162.944 149.376L205.797 160.478C209.201 161.36 212.674 159.316 213.556 155.912L219.948 131.239C220.83 127.836 218.786 124.362 215.383 123.48Z" fill="#4B4E51" stroke="#B1B3B2" stroke-width="2"/>
<path d="M191.304 136.343L167.747 130.24L166.123 136.509L189.68 142.612L191.304 136.343Z" fill="white"/>
<path d="M218.115 134.33L164.873 120.536L163.739 124.912L216.981 138.706L218.115 134.33Z" fill="#C7C9C8"/>
<circle cx="176.891" cy="44.2411" r="11" transform="rotate(-6.12034 176.891 44.2411)" stroke="#343841" stroke-width="2"/>
<path d="M172.57 39.2818L173.785 50.6088L175.773 50.3956L175.306 46.0366L178.503 45.6937C180.794 45.4481 182.032 43.9315 181.801 41.7838C181.547 39.4134 179.824 38.5039 177.486 38.7547L172.57 39.2818ZM174.736 40.7231L177.329 40.445C178.586 40.3102 179.709 40.576 179.866 42.0397C180.009 43.376 179.19 43.9948 177.902 44.133L175.133 44.4298L174.736 40.7231Z" fill="#343841"/>
<circle cx="147.119" cy="28.3297" r="8" transform="rotate(18.4287 147.119 28.3297)" stroke="#C7C9C8" stroke-width="2"/>
<path d="M145.084 31.8676L146.632 32.3835L147.694 29.1958L150.851 30.2479L151.332 28.8058L148.175 27.7537L149.237 24.5661L147.689 24.0501L146.626 27.2378L143.484 26.1908L143.004 27.6329L146.146 28.6799L145.084 31.8676Z" fill="#C7C9C8"/>
<circle cx="164.194" cy="11.8852" r="6" transform="rotate(-9.23396 164.194 11.8852)" stroke="#C7C9C8" stroke-width="2"/>
<path d="M166.125 10.9714L162.076 11.6297L162.315 13.0944L166.363 12.4362L166.125 10.9714Z" fill="#C7C9C8"/>
<defs>
<filter id="filter0_d_3382_20964" x="-1.75879" y="-1.70801" width="178.462" height="196.712" filterUnits="userSpaceOnUse" color-interpolation-filters="sRGB">
<feFlood flood-opacity="0" result="BackgroundImageFix"/>
<feColorMatrix in="SourceAlpha" type="matrix" values="0 0 0 0 0 0 0 0 0 0 0 0 0 0 0 0 0 0 127 0" result="hardAlpha"/>
<feMorphology radius="4" operator="dilate" in="SourceAlpha" result="effect1_dropShadow_3382_20964"/>
<feOffset/>
<feGaussianBlur stdDeviation="5"/>
<feComposite in2="hardAlpha" operator="out"/>
<feColorMatrix type="matrix" values="0 0 0 0 0 0 0 0 0 0 0 0 0 0 0 0 0 0 0.03 0"/>
<feBlend mode="normal" in2="BackgroundImageFix" result="effect1_dropShadow_3382_20964"/>
<feBlend mode="normal" in="SourceGraphic" in2="effect1_dropShadow_3382_20964" result="shape"/>
</filter>
<filter id="filter1_d_3382_20964" x="77.5276" y="54.5273" width="131.239" height="152.204" filterUnits="userSpaceOnUse" color-interpolation-filters="sRGB">
<feFlood flood-opacity="0" result="BackgroundImageFix"/>
<feColorMatrix in="SourceAlpha" type="matrix" values="0 0 0 0 0 0 0 0 0 0 0 0 0 0 0 0 0 0 127 0" result="hardAlpha"/>
<feMorphology radius="4" operator="dilate" in="SourceAlpha" result="effect1_dropShadow_3382_20964"/>
<feOffset/>
<feGaussianBlur stdDeviation="5"/>
<feComposite in2="hardAlpha" operator="out"/>
<feColorMatrix type="matrix" values="0 0 0 0 0 0 0 0 0 0 0 0 0 0 0 0 0 0 0.03 0"/>
<feBlend mode="normal" in2="BackgroundImageFix" result="effect1_dropShadow_3382_20964"/>
<feBlend mode="normal" in="SourceGraphic" in2="effect1_dropShadow_3382_20964" result="shape"/>
</filter>
</defs>
</svg>
